<?xml version="1.0" encoding="utf-8"?>
<!-- Generator: Adobe Illustrator 25.4.1, SVG Export Plug-In . SVG Version: 6.00 Build 0)  -->
<svg version="1.1" id="Capa_1" xmlns="http://www.w3.org/2000/svg" xmlns:xlink="http://www.w3.org/1999/xlink" x="0px" y="0px"
	 viewBox="0 0 702.1 181" style="enable-background:new 0 0 702.1 181;" xml:space="preserve">
<style type="text/css">
	.st0{fill:#2F387C;}
	.st1{fill:#FFCE55;}
	.st2{fill:#4770B2;}
	.st3{fill:#F18636;}
</style>
<g>
	<g>
		<path class="st0" d="M43.5,94.4c23.6-39.9,65.8-19.7,65.8-19.7C74,32.5,16.2,55.7,9.7,100.5c-6.5,44.8,46,70.4,46,70.4
			S19.8,134.3,43.5,94.4z"/>
		<path class="st0" d="M76.9,124.5C63,92.7,88.3,76.4,88.3,76.4c-61.1,3.7-56.2,81.4-12.6,98.5s80.6-24.4,80.6-24.4
			C127.8,166,90.7,156.2,76.9,124.5z"/>
		<path class="st0" d="M178.4,94.1c0,0-10.3,21.7-30.7,29c-20.4,7.3-51,8.7-66.8-14.5c0,0-0.7,28.1,28.3,37.1
			C138.2,154.6,180,145.9,178.4,94.1z"/>
	</g>
	<path class="st1" d="M161.7,46.7c0,0,0.5-12.9-8.1-22.5c-8.7-9.6-22.5-9-22.5-9s-4.8-11.9-18.3-13.2c-13.5-1.2-20.2,8-20.2,8
		s-4.9-7.1-17.8-8.1s-21,13.3-21,13.3s-13.6-1.6-22.3,9c-8.7,10.7-8.8,22.5-8.8,22.5s-11,4.3-14.3,17.5s0,15.4,0,15.4
		s4.6-9.2,7.1-10.5c0,0,1.2-10.5,12.9-16.4l3.7,3.1l2.9-3.5l-3.5-2.9c-0.5-5-0.4-14.3,6.8-20.1c6.8-5.5,15.6-5.9,20.7-5.6l5.4,4.6
		c-0.3,0.8-0.5,1.8-0.5,2.7c0,1.8,0.6,3.4,1.6,4.8l-5.7,8l3.7,2.6l5.6-7.9c0.9,0.3,1.8,0.5,2.8,0.5c4.4,0,8-3.6,8-8c0-4.4-3.6-8-8-8
		c-1.8,0-3.5,0.6-4.8,1.6l-5.8-4.9c1.1-3.3,4.1-8.9,12-9.8C84.7,8.6,88,19.7,88,19.7v30.1l8.7,3.6V53l13.2-13.3
		c0.9,0.4,1.9,0.6,2.9,0.6c0.4,0,0.8,0,1.2-0.1l8.4,15.4c-1,1-1.8,2.2-2.2,3.6h-13.5v4.5h13.5c0.5,1.8,1.7,3.4,3.3,4.4l-6.7,22.7
		c-0.1,0-0.2,0-0.2,0c-1.8,0-3.4,0.6-4.7,1.5l-13.4-8.5l-2.4,3.8L109,96c-0.3,0.9-0.5,1.8-0.5,2.8c0,0.1,0,0.2,0,0.3l-19.1,5.3
		l1.2,4.4l19.3-5.4c1.4,2.1,3.8,3.4,6.5,3.4c2.1,0,4-0.8,5.4-2.1l20,11.9l0.4-0.6l0,0.1c0,0,1,0.3,7.1-2.7c6.1-3.1,6.6-4.4,8.1-12.8
		c0,0,19.5-7.3,19.8-28.4C177.6,51.1,161.7,46.7,161.7,46.7z M148.1,71.6c-1.5,0-2.9,0.4-4,1.2l-9.1-7.9c0.5-1.1,0.8-2.2,0.8-3.5
		c0-0.3,0-0.7-0.1-1l18.7-7.6L148.1,71.6z M96.7,19.7c0,0,1.5-9,12.6-9.8c9-0.7,12.9,6.9,14.1,9.7l-6,6.1c-1.3-0.9-2.9-1.4-4.6-1.4
		c-4.4,0-8,3.6-8,8c0,1.7,0.6,3.3,1.5,4.6l-9.6,9.7V19.7z M125.5,23.9c3.9-0.9,9.6-1.1,16.4,2.1c9.7,4.6,11.4,15.3,11.6,19.6
		l-32.7-13.1c0-0.1,0-0.1,0-0.2c0-1.1-0.2-2.1-0.6-3L125.5,23.9z M118.1,38.3c0.5-0.4,0.9-0.9,1.3-1.5l31.5,12.6l-17,6.9
		c-1.5-1.7-3.7-2.8-6.1-2.8c-0.5,0-0.9,0-1.4,0.1L118.1,38.3z M127.8,69.5c1.5,0,2.9-0.4,4.1-1.2l9.2,7.9c-0.5,1.1-0.8,2.2-0.8,3.5
		c0,0.5,0.1,1.1,0.2,1.6l-18.2,12c-0.3-0.3-0.7-0.7-1.1-0.9L127.8,69.5z M149.3,97.9c0.2,1.7-1.7,11.7-5.4,14.6l-19.7-11.7
		c0.2-0.6,0.3-1.3,0.3-2c0-0.6-0.1-1.1-0.2-1.6l18.2-12c1.3,1.4,3.2,2.2,5.2,2.4l2.9,7.4C150,95.9,149.2,97,149.3,97.9z M154.7,93
		l-2.5-6.4c2.4-1.4,4.1-4,4.1-7c0-2.9-1.5-5.4-3.8-6.8l6.2-18.6c4.4,2.6,9.6,7.7,10.1,17.3C169.5,85.8,158.5,91.5,154.7,93z"/>
	<g>
		<path class="st2" d="M223.2,140.1c2.9,0,5.2-1.1,7-3.4l3.7,3.9c-3,3.3-6.5,5-10.5,5c-4,0-7.4-1.3-10-3.8c-2.6-2.5-3.9-5.8-3.9-9.6
			c0-3.9,1.3-7.1,4-9.7c2.7-2.6,5.9-3.9,9.8-3.9c4.3,0,7.9,1.6,10.8,4.9l-3.6,4.1c-1.8-2.3-4.1-3.4-6.9-3.4c-2.2,0-4.1,0.7-5.6,2.2
			c-1.6,1.4-2.3,3.4-2.3,5.8c0,2.4,0.7,4.4,2.2,5.9C219.4,139.3,221.1,140.1,223.2,140.1z"/>
		<path class="st2" d="M261.3,141.6c-2.6,2.6-5.9,3.9-9.8,3.9c-3.9,0-7.1-1.3-9.8-3.9c-2.6-2.6-4-5.8-4-9.6c0-3.8,1.3-7.1,4-9.6
			c2.6-2.6,5.9-3.9,9.8-3.9c3.9,0,7.1,1.3,9.8,3.9c2.6,2.6,4,5.8,4,9.6C265.2,135.8,263.9,139,261.3,141.6z M259.3,132
			c0-2.3-0.7-4.3-2.2-6c-1.5-1.6-3.3-2.5-5.5-2.5c-2.2,0-4,0.8-5.5,2.5c-1.5,1.6-2.2,3.6-2.2,6c0,2.3,0.7,4.3,2.2,6
			c1.5,1.6,3.3,2.5,5.5,2.5c2.2,0,4-0.8,5.5-2.5C258.5,136.3,259.3,134.3,259.3,132z"/>
		<path class="st2" d="M288.3,131.9h5.9v9.3c-2.6,2.9-6.2,4.3-10.8,4.3c-3.8,0-7.1-1.3-9.7-3.8c-2.6-2.5-3.9-5.8-3.9-9.6
			c0-3.9,1.3-7.1,4-9.7c2.7-2.6,5.9-3.9,9.6-3.9c3.8,0,7,1.2,9.8,3.7l-3,4.4c-1.2-1-2.3-1.7-3.2-2.1c-1-0.4-2.1-0.6-3.2-0.6
			c-2.2,0-4.1,0.8-5.6,2.3c-1.5,1.5-2.3,3.5-2.3,6c0,2.5,0.7,4.5,2.2,5.9c1.5,1.5,3.2,2.2,5.2,2.2c2,0,3.7-0.4,5.1-1.2V131.9z"/>
		<path class="st2" d="M318.9,119h5.8v26.2h-5.8l-12.5-16.4v16.4h-5.8V119h5.5l12.8,16.9V119z"/>
		<path class="st2" d="M332.4,119h5.8v26.2h-5.8V119z"/>
		<path class="st2" d="M356.9,124.1v21.1h-5.8v-21.1h-7.4V119h20.7v5.1H356.9z"/>
		<path class="st2" d="M369.8,119h5.8v26.2h-5.8V119z"/>
		<path class="st2" d="M392.9,135.7l6.7-16.7h6.3l-10.5,26.2h-4.9L379.9,119h6.3L392.9,135.7z"/>
		<path class="st2" d="M429,119v5.2h-13v5.4h11.7v5H416v5.4h13.4v5.2h-19.3V119H429z"/>
		<path class="st2" d="M453,124.3c-0.6,0.5-0.8,1.1-0.8,1.8c0,0.8,0.3,1.4,1,1.8c0.7,0.4,2.3,1,4.8,1.6c2.5,0.6,4.4,1.5,5.8,2.8
			c1.4,1.2,2.1,3,2.1,5.4c0,2.3-0.9,4.3-2.6,5.7c-1.8,1.5-4.1,2.2-6.9,2.2c-4.1,0-7.9-1.5-11.2-4.6l3.5-4.3c2.8,2.5,5.4,3.7,7.8,3.7
			c1.1,0,1.9-0.2,2.5-0.7c0.6-0.5,0.9-1.1,0.9-1.9s-0.3-1.4-1-1.9c-0.6-0.5-1.9-0.9-3.9-1.4c-3-0.7-5.3-1.7-6.7-2.8
			c-1.4-1.2-2.1-3-2.1-5.5c0-2.5,0.9-4.4,2.7-5.8c1.8-1.3,4-2,6.7-2c1.7,0,3.5,0.3,5.2,0.9c1.7,0.6,3.3,1.4,4.6,2.5l-3,4.3
			c-2.3-1.7-4.6-2.6-7-2.6C454.3,123.6,453.5,123.8,453,124.3z"/>
		<path class="st2" d="M478.8,138.5c1,1.2,2.3,1.8,3.9,1.8c1.6,0,3-0.6,3.9-1.8c1-1.2,1.4-2.9,1.4-5V119h5.8v14.6
			c0,3.8-1,6.7-3.1,8.7c-2.1,2-4.8,3.1-8.1,3.1c-3.3,0-6-1-8.1-3.1c-2.1-2-3.2-5-3.2-8.7V119h5.8v14.5
			C477.4,135.6,477.9,137.2,478.8,138.5z"/>
		<path class="st2" d="M501.2,119h5.8v26.2h-5.8V119z"/>
		<path class="st2" d="M525.7,124.1v21.1h-5.8v-21.1h-7.4V119h20.7v5.1H525.7z"/>
		<path class="st2" d="M557.5,119v5.2h-13v5.4h11.7v5h-11.7v5.4h13.4v5.2h-19.3V119H557.5z"/>
	</g>
	<circle class="st3" cx="116.4" cy="98.7" r="8.8"/>
	<circle class="st3" cx="148.2" cy="79.5" r="8.8"/>
	<circle class="st3" cx="127.7" cy="61.3" r="8.8"/>
	<circle class="st3" cx="112.6" cy="32" r="8.8"/>
	<circle class="st3" cx="71.7" cy="30.8" r="8.8"/>
	
		<rect x="91" y="11.2" transform="matrix(3.033357e-02 -0.9995 0.9995 3.033357e-02 58.2782 122.8271)" class="st3" width="2.9" height="40.4"/>
	
		<rect x="100" y="17.6" transform="matrix(0.4699 -0.8827 0.8827 0.4699 12.0144 114.6004)" class="st3" width="2.9" height="59.4"/>
	
		<rect x="113" y="36.7" transform="matrix(0.998 -6.307270e-02 6.307270e-02 0.998 -3.9574 7.3534)" class="st3" width="2.9" height="59.3"/>
	<path class="st0" d="M109.2,74.6"/>
	<path class="st2" d="M43.5,94.4c23.6-39.9,65.8-19.7,65.8-19.7s-35.3-25.8-66.6-3.9s-29.5,72.2,13,100.2
		C55.7,170.9,19.8,134.3,43.5,94.4z"/>
	<path class="st2" d="M76.9,124.5C63,92.7,88.3,76.4,88.3,76.4S55,85.8,62.8,132c7.8,46.1,71.5,39.4,93.4,18.6
		C127.8,166,90.7,156.2,76.9,124.5z"/>
	<path class="st2" d="M139.4,137.6c35-6.3,39-43.5,39-43.5s-10.3,21.7-30.7,29c-20.4,7.3-51,8.7-66.8-14.5
		C84.6,123.1,104.4,143.9,139.4,137.6z"/>
	<g>
		<path class="st0" d="M253.9,96.1l-4.9-11.4h-22.1l-4.9,11.4h-12.5l22.8-52.8h11.4l22.8,52.8H253.9z M237.9,59l-6.6,15.3h13.2
			L237.9,59z"/>
		<path class="st0" d="M292.6,53.5v42.6h-11.8V53.5h-15V43.3h41.7v10.2H292.6z"/>
		<path class="st0" d="M317.8,96.1V43.3h11.8v42.3h22.5v10.5H317.8z"/>
		<path class="st0" d="M399.9,96.1L395,84.7h-22.1l-4.9,11.4h-12.5l22.8-52.8h11.4l22.8,52.8H399.9z M384,59l-6.6,15.3h13.2L384,59z
			"/>
		<path class="st0" d="M457.1,43.3h11.8v52.8h-11.8L431.9,63v33.1h-11.8V43.3h11l25.9,34V43.3z"/>
		<path class="st0" d="M505.8,53.5v42.6H494V53.5h-15V43.3h41.7v10.2H505.8z"/>
		<path class="st0" d="M553.7,96.1h-11.8V75.2l-18.3-32h12.8l11.4,19.6l11.4-19.6H572l-18.3,32V96.1z"/>
		<path class="st0" d="M625.7,69.3c0,5.5-1.4,10.4-4.2,14.8c-2.8,4.4-6.6,7.7-11.3,9.8c0.5,0.8,1.2,1.4,2.2,1.9c1,0.5,2,0.8,3.1,0.8
			s2.1-0.2,3.1-0.5c1-0.3,1.8-0.7,2.4-1.2c1.3-1.1,2.2-2.1,2.8-3.1l6.1,7.3c-4.3,4.6-9.7,6.9-16.2,6.9c-3,0-6-0.8-8.9-2.5
			c-2.9-1.7-5.2-4-6.7-7c-7.8,0-14.4-2.6-19.7-7.8c-5.3-5.2-8-11.7-8-19.5c0-7.8,2.7-14.2,8-19.5c5.3-5.2,11.9-7.8,19.7-7.8
			c7.8,0,14.4,2.6,19.7,7.8C623,55.1,625.7,61.6,625.7,69.3z M613.7,69.4c0-4.7-1.5-8.7-4.5-12.1c-3-3.3-6.7-5-11.1-5
			s-8.1,1.7-11.1,5s-4.5,7.3-4.5,12.1c0,4.7,1.5,8.7,4.5,12c3,3.3,6.7,4.9,11.1,4.9s8.1-1.6,11.1-4.9
			C612.2,78.1,613.7,74.1,613.7,69.4z"/>
		<path class="st0" d="M674.9,96.1L670,84.7h-22.1L643,96.1h-12.5l22.8-52.8h11.4l22.8,52.8H674.9z M659,59l-6.6,15.3h13.2L659,59z"
			/>
	</g>
</g>
</svg>
