<?xml version="1.0" encoding="utf-8"?>
<!-- Generator: Adobe Illustrator 25.4.1, SVG Export Plug-In . SVG Version: 6.00 Build 0)  -->
<svg version="1.1" id="Capa_1" xmlns="http://www.w3.org/2000/svg" xmlns:xlink="http://www.w3.org/1999/xlink" x="0px" y="0px"
	 viewBox="0 0 428 442.4" style="enable-background:new 0 0 428 442.4;" xml:space="preserve">
<style type="text/css">
	.st0{fill:#2F387C;}
	.st1{fill:#FFCE55;}
	.st2{fill:#F18636;}
	.st3{fill:#4770B2;}
</style>
<g>
	<g>
		<path class="st0" d="M96,230.4c56.6-95.6,157.6-47.3,157.6-47.3c-84.4-101-222.9-45.4-238.5,62
			C-0.6,352.4,125.3,413.9,125.3,413.9S39.4,326.1,96,230.4z"/>
		<path class="st0" d="M176,302.6c-33.2-76.1,27.3-115.1,27.3-115.1C57,196.3,68.7,382.6,173.1,423.6
			c104.4,41,193.2-58.5,193.2-58.5C298.2,402.2,209.2,378.7,176,302.6z"/>
		<path class="st0" d="M419.3,229.8c0,0-24.7,52-73.5,69.6c-48.8,17.6-122.3,20.8-160-34.8c0,0-1.6,67.3,67.8,88.8
			C323,374.8,423.2,354,419.3,229.8z"/>
	</g>
	<path class="st1" d="M379.3,116.3c0,0,1.3-30.9-19.5-53.8c-20.8-22.9-54-21.6-54-21.6S294.4,12.2,262,9.3
		c-32.4-2.9-48.3,19.2-48.3,19.2S202,11.4,171.1,9c-30.9-2.3-50.4,31.8-50.4,31.8s-32.5-3.9-53.3,21.6
		C46.6,88,46.2,116.3,46.2,116.3s-26.3,10.4-34.1,42c-7.8,31.5,0,37,0,37s11.1-22,16.9-25.1c0,0,2.8-25.2,30.9-39.3l8.9,7.4l6.9-8.4
		l-8.4-7c-1.3-12-0.9-34.4,16.4-48.2c16.3-13.1,37.4-14.1,49.6-13.4l12.9,10.9c-0.7,2-1.2,4.2-1.2,6.5c0,4.3,1.4,8.2,3.8,11.4
		l-13.6,19.1l8.9,6.3l13.5-18.8c2.1,0.8,4.3,1.2,6.7,1.2c10.6,0,19.2-8.6,19.2-19.2c0-10.6-8.6-19.2-19.2-19.2
		c-4.3,0-8.3,1.5-11.6,3.9l-13.9-11.8c2.6-7.9,9.9-21.3,28.9-23.5c27.3-3.3,35.1,23.4,35.1,23.4v72.2l20.8,8.7v-1l31.5-32
		c2.2,0.9,4.5,1.3,7,1.3c0.9,0,1.9-0.1,2.8-0.2l20.1,37c-2.5,2.3-4.3,5.2-5.3,8.6h-32.3v10.9h32.3c1.3,4.4,4.2,8.2,8,10.6l-16,54.3
		c-0.2,0-0.4,0-0.6,0c-4.2,0-8.1,1.4-11.3,3.7l-32.1-20.3l-5.8,9.2l31.3,19.8c-0.8,2.1-1.3,4.4-1.3,6.8c0,0.2,0,0.5,0,0.7
		l-45.7,12.7l2.9,10.5l46.3-12.9c3.5,4.9,9.2,8.2,15.7,8.2c5,0,9.5-1.9,12.9-5l48,28.6l0.8-1.4l0,0.2c0,0,2.4,0.8,17.1-6.5
		c14.6-7.3,15.8-10.6,19.3-30.6c0,0,46.8-17.4,47.5-68.1C417.3,126.7,379.3,116.3,379.3,116.3z M361.7,131.1l-14.9,45
		c-3.5,0.1-6.8,1.1-9.7,2.8L315.2,160c1.2-2.5,1.9-5.4,1.9-8.4c0-0.8-0.1-1.6-0.2-2.4L361.7,131.1z M331.8,66.5
		c23.3,11,27.3,36.6,27.9,46.9l-78.5-31.4c0-0.1,0-0.3,0-0.4c0-2.6-0.5-5-1.4-7.2l12.7-12.9C301.7,59.5,315.6,58.9,331.8,66.5z
		 M262,62.5c-10.6,0-19.2,8.6-19.2,19.2c0,4.1,1.3,8,3.6,11.1L223.5,116V51.6c0,0,3.6-21.5,30.1-23.4c21.6-1.6,31,16.4,33.7,23.2
		l-14.4,14.5C269.8,63.7,266.1,62.5,262,62.5z M274.7,96c1.2-1.1,2.3-2.2,3.2-3.6l75.5,30.2l-40.8,16.5c-3.5-4.1-8.8-6.8-14.6-6.8
		c-1.1,0-2.2,0.1-3.3,0.3L274.7,96z M281.9,225.4l16.1-54.6c3.6,0,7-1,9.9-2.8l21.9,18.9c-1.2,2.5-1.9,5.3-1.9,8.3
		c0,1.3,0.1,2.6,0.4,3.8l-43.7,28.7C283.8,226.8,282.8,226.1,281.9,225.4z M349.7,239.1c0.4,4.1-4.1,28.1-13.1,35l-47.1-28
		c0.4-1.5,0.6-3.2,0.6-4.8c0-1.3-0.1-2.6-0.4-3.9l43.6-28.6c3.2,3.3,7.6,5.4,12.4,5.7l7.1,17.7C351.1,234.1,349.4,236.7,349.7,239.1
		z M362.6,227.1l-6.1-15.2c5.8-3.3,9.7-9.5,9.7-16.7c0-6.8-3.6-12.8-9-16.2l14.7-44.5c10.5,6.3,22.9,18.5,24.2,41.5
		C398.1,210,371.5,223.6,362.6,227.1z"/>
	<g>
		
			<ellipse transform="matrix(0.7071 -0.7071 0.7071 0.7071 -36.1558 302.3649)" class="st2" cx="346.9" cy="194.8" rx="21.2" ry="21.2"/>
		<path class="st2" d="M297.7,130c-6.8,0-12.9,3.2-16.7,8.3l-13.3-7.1l-1.9-29.4c9.7-1.9,17-10.5,17-20.7c0-11.7-9.5-21.2-21.2-21.2
			c-10.3,0-18.8,7.3-20.7,17l-56.4-1.7c-1.4-10.3-10.2-18.2-20.9-18.2c-11.7,0-21.2,9.5-21.2,21.2s9.5,21.2,21.2,21.2
			c6.3,0,11.9-2.8,15.8-7.1l81.5,43.4l5.4,84.7c-9.6,2-16.7,10.5-16.7,20.7c0,11.7,9.5,21.2,21.2,21.2c11.7,0,21.2-9.5,21.2-21.2
			c0-10.8-8.1-19.7-18.5-21l-5.1-80.5l9.5,5c-0.7,2.1-1.1,4.3-1.1,6.7c0,11.7,9.5,21.2,21.2,21.2c11.7,0,21.2-9.5,21.2-21.2
			C318.8,139.5,309.4,130,297.7,130z M183.1,86.2c0.5-1.3,0.9-2.6,1.2-4l56.4,1.7c1.3,9.4,8.7,16.7,18,18l1.6,25.3L183.1,86.2z"/>
	</g>
	<path class="st0" d="M253.6,183.1"/>
	<path class="st3" d="M96,230.4c56.6-95.6,157.6-47.3,157.6-47.3s-84.7-61.9-159.5-9.5s-70.7,173,31.2,240.2
		C125.3,413.9,39.4,326.1,96,230.4z"/>
	<path class="st3" d="M176,302.6c-33.2-76.1,27.3-115.1,27.3-115.1s-79.7,22.5-60.9,133c18.8,110.5,171.3,94.4,223.8,44.5
		C298.2,402.2,209.2,378.7,176,302.6z"/>
	<path class="st3" d="M325.8,334c83.8-15.1,93.5-104.2,93.5-104.2s-24.7,52-73.5,69.6c-48.8,17.6-122.3,20.8-160-34.8
		C194.5,299.2,242,349.1,325.8,334z"/>
</g>
</svg>
