<?xml version="1.0" encoding="utf-8"?>
<!-- Generator: Adobe Illustrator 25.4.1, SVG Export Plug-In . SVG Version: 6.00 Build 0)  -->
<svg version="1.1" id="Capa_1" xmlns="http://www.w3.org/2000/svg" xmlns:xlink="http://www.w3.org/1999/xlink" x="0px" y="0px"
	 viewBox="0 0 679.7 181" style="enable-background:new 0 0 679.7 181;" xml:space="preserve">
<style type="text/css">
	.st0{fill:#FFCE55;}
	.st1{fill:#F18636;}
	.st2{fill:#2F387C;}
	.st3{fill:#4770B2;}
</style>
<g>
	<path class="st0" d="M162,46.7c0,0,0.5-12.9-8.1-22.5c-8.7-9.6-22.5-9-22.5-9s-4.7-11.9-18.2-13.2c-13.5-1.2-20.1,8-20.1,8
		S88,3,75.1,2s-21,13.3-21,13.3s-13.6-1.6-22.2,9C23.2,34.9,23,46.7,23,46.7s-11,4.3-14.2,17.5c-3.3,13.2,0,15.4,0,15.4
		s4.6-9.2,7.1-10.5c0,0,1.2-10.5,12.9-16.4l3.7,3.1l2.9-3.5l-3.5-2.9c-0.5-5-0.4-14.3,6.8-20.1c6.8-5.5,15.6-5.9,20.7-5.6l5.4,4.6
		c-0.3,0.8-0.5,1.8-0.5,2.7c0,1.8,0.6,3.4,1.6,4.8l-5.7,7.9l3.7,2.6l5.6-7.9c0.9,0.3,1.8,0.5,2.8,0.5c4.4,0,8-3.6,8-8
		c0-4.4-3.6-8-8-8c-1.8,0-3.5,0.6-4.8,1.6l-5.8-4.9c1.1-3.3,4.1-8.9,12-9.8c11.4-1.4,14.7,9.8,14.7,9.8v30.1l8.7,3.6v-0.4l13.2-13.3
		c0.9,0.4,1.9,0.6,2.9,0.6c0.4,0,0.8,0,1.2-0.1l8.4,15.4c-1,1-1.8,2.2-2.2,3.6h-13.5v4.5h13.5c0.5,1.8,1.7,3.4,3.3,4.4L117,90.9
		c-0.1,0-0.2,0-0.2,0c-1.8,0-3.4,0.6-4.7,1.5l-13.4-8.5l-2.4,3.8l13.1,8.3c-0.3,0.9-0.5,1.8-0.5,2.8c0,0.1,0,0.2,0,0.3l-19.1,5.3
		l1.2,4.4l19.3-5.4c1.4,2.1,3.8,3.4,6.5,3.4c2.1,0,4-0.8,5.4-2.1l20,11.9l0.4-0.6l0,0.1c0,0,1,0.3,7.1-2.7c6.1-3.1,6.6-4.4,8.1-12.8
		c0,0,19.5-7.3,19.8-28.4C177.8,51.1,162,46.7,162,46.7z M154.6,52.9l-6.2,18.8c-1.5,0-2.8,0.4-4,1.2l-9.1-7.9
		c0.5-1.1,0.8-2.2,0.8-3.5c0-0.3,0-0.7-0.1-1L154.6,52.9z M142.2,26c9.7,4.6,11.4,15.3,11.6,19.6L121,32.5c0-0.1,0-0.1,0-0.2
		c0-1.1-0.2-2.1-0.6-3l5.3-5.4C129.6,23,135.4,22.8,142.2,26z M113.1,24.3c-4.4,0-8,3.6-8,8c0,1.7,0.6,3.3,1.5,4.6L97,46.6V19.8
		c0,0,1.5-9,12.5-9.8c9-0.7,12.9,6.8,14.1,9.7l-6,6.1C116.3,24.8,114.7,24.3,113.1,24.3z M118.3,38.3c0.5-0.4,0.9-0.9,1.3-1.5
		l31.5,12.6l-17,6.9c-1.5-1.7-3.7-2.8-6.1-2.8c-0.5,0-0.9,0-1.4,0.1L118.3,38.3z M121.3,92.3l6.7-22.8c1.5,0,2.9-0.4,4.1-1.2
		l9.1,7.9c-0.5,1.1-0.8,2.2-0.8,3.5c0,0.5,0.1,1.1,0.2,1.6l-18.2,12C122.1,92.9,121.7,92.5,121.3,92.3z M149.6,98
		c0.2,1.7-1.7,11.7-5.4,14.6l-19.6-11.7c0.2-0.6,0.3-1.3,0.3-2c0-0.6-0.1-1.1-0.2-1.6l18.2-12c1.3,1.4,3.2,2.2,5.2,2.4l2.9,7.4
		C150.2,95.9,149.5,97,149.6,98z M155,93l-2.5-6.4c2.4-1.4,4.1-4,4.1-7c0-2.9-1.5-5.4-3.7-6.8l6.1-18.6c4.4,2.6,9.5,7.7,10.1,17.3
		C169.8,85.8,158.7,91.5,155,93z"/>
	<g>
		
			<ellipse transform="matrix(0.7071 -0.7071 0.7071 0.7071 -12.7366 128.2684)" class="st1" cx="148.5" cy="79.5" rx="8.8" ry="8.8"/>
		<path class="st1" d="M127.9,52.5c-2.8,0-5.4,1.4-7,3.4l-5.5-3l-0.8-12.3c4.1-0.8,7.1-4.4,7.1-8.7c0-4.9-4-8.8-8.8-8.8
			c-4.3,0-7.8,3-8.7,7.1l-23.5-0.7C80.1,25.3,76.4,22,72,22c-4.9,0-8.8,4-8.8,8.8s4,8.8,8.8,8.8c2.6,0,5-1.1,6.6-3l34,18.1l2.2,35.3
			c-4,0.8-7,4.4-7,8.6c0,4.9,4,8.8,8.8,8.8s8.8-4,8.8-8.8c0-4.5-3.4-8.2-7.7-8.7l-2.1-33.6l3.9,2.1c-0.3,0.9-0.5,1.8-0.5,2.8
			c0,4.9,4,8.8,8.8,8.8s8.8-4,8.8-8.8S132.8,52.5,127.9,52.5z M80.1,34.2c0.2-0.5,0.4-1.1,0.5-1.7l23.5,0.7c0.5,3.9,3.6,7,7.5,7.5
			l0.7,10.6L80.1,34.2z"/>
	</g>
	<g>
		<path class="st2" d="M43.8,94.4c23.6-39.9,65.7-19.7,65.7-19.7c-35.2-42.1-93-18.9-99.5,25.8s46,70.4,46,70.4
			S20.2,134.3,43.8,94.4z"/>
		<path class="st2" d="M77.2,124.5c-13.8-31.7,11.4-48,11.4-48c-61,3.7-56.2,81.4-12.6,98.5c43.5,17.1,80.6-24.4,80.6-24.4
			C128.1,166,91,156.2,77.2,124.5z"/>
		<path class="st2" d="M148,123.1c-20.3,7.3-51,8.7-66.7-14.5c0,0-0.7,28.1,28.3,37c29,9,70.7,0.3,69.1-51.6
			C178.6,94.1,168.3,115.8,148,123.1z"/>
		<path class="st2" d="M232.7,43.1L209.9,96h12.5l4.9-11.4h22.1l4.9,11.4H267l-22.8-52.8H232.7z M231.8,74.2l6.7-15.3l6.6,15.3
			H231.8z"/>
		<polygon class="st2" points="266.4,53.3 281.4,53.3 281.4,96 293.2,96 293.2,53.3 308.2,53.3 308.2,43.1 266.4,43.1 		"/>
		<polygon class="st2" points="330.2,43.1 318.4,43.1 318.4,96 352.7,96 352.7,85.5 330.2,85.5 		"/>
		<path class="st2" d="M378.8,43.1L356,96h12.5l4.9-11.4h22.1l4.9,11.4h12.5l-22.8-52.8H378.8z M377.9,74.2l6.7-15.3l6.6,15.3H377.9
			z"/>
		<polygon class="st2" points="457.8,77.1 431.8,43.1 420.8,43.1 420.8,96 432.6,96 432.6,62.9 457.8,96 469.6,96 469.6,43.1 
			457.8,43.1 		"/>
		<polygon class="st2" points="479.8,53.3 494.7,53.3 494.7,96 506.5,96 506.5,53.3 521.5,53.3 521.5,43.1 479.8,43.1 		"/>
		<rect x="531.7" y="43.1" class="st2" width="11.8" height="52.8"/>
		<path class="st2" d="M605.8,94.9c-0.6,0.5-1.4,0.8-2.4,1.2c-1,0.3-2,0.5-3.1,0.5c-1.1,0-2.1-0.3-3.1-0.8c-1-0.5-1.7-1.2-2.2-1.9
			c4.7-2.2,8.5-5.4,11.3-9.8c2.8-4.4,4.2-9.3,4.2-14.8c0-7.8-2.7-14.2-8-19.5c-5.3-5.2-11.9-7.8-19.7-7.8c-7.8,0-14.4,2.6-19.7,7.8
			c-5.3,5.2-8,11.7-8,19.5c0,7.8,2.7,14.2,8,19.5c5.3,5.2,11.9,7.8,19.7,7.8c1.6,3,3.8,5.4,6.7,7c2.9,1.7,5.9,2.5,8.9,2.5
			c6.5,0,11.9-2.3,16.3-6.9l-6.1-7.3C608,92.8,607.1,93.9,605.8,94.9z M582.8,86.2c-4.4,0-8.1-1.7-11.2-5c-3-3.3-4.5-7.3-4.5-12
			c0-4.7,1.5-8.7,4.5-12.1c3-3.3,6.7-5,11.2-5c4.4,0,8.1,1.7,11.1,5c3,3.3,4.5,7.3,4.5,12.1c0,4.7-1.5,8.7-4.5,12
			C591,84.6,587.2,86.2,582.8,86.2z"/>
		<path class="st2" d="M649.5,43.1h-11.4L615.3,96h12.5l4.9-11.4h22.1l4.9,11.4h12.5L649.5,43.1z M637.2,74.2l6.7-15.3l6.6,15.3
			H637.2z"/>
	</g>
	<g>
		<path class="st3" d="M223.9,124c2.7,0,5,1.1,6.9,3.4l3.6-4.1c-2.9-3.3-6.5-4.9-10.8-4.9c-3.8,0-7.1,1.3-9.8,3.9
			c-2.7,2.6-4,5.8-4,9.7c0,3.9,1.3,7.1,3.9,9.6c2.6,2.5,5.9,3.8,10,3.8c4,0,7.5-1.7,10.5-5l-3.7-3.9c-1.8,2.3-4.2,3.4-7,3.4
			c-2.1,0-3.9-0.7-5.4-2.2c-1.5-1.5-2.2-3.4-2.2-5.9s0.8-4.4,2.3-5.8C219.8,124.7,221.7,124,223.9,124z"/>
		<path class="st3" d="M251.7,118.4c-3.9,0-7.1,1.3-9.8,3.9c-2.6,2.6-4,5.8-4,9.6c0,3.8,1.3,7.1,4,9.6c2.6,2.6,5.9,3.9,9.8,3.9
			c3.9,0,7.1-1.3,9.8-3.9c2.6-2.6,4-5.8,4-9.6c0-3.8-1.3-7.1-4-9.6C258.8,119.7,255.6,118.4,251.7,118.4z M257.2,137.9
			c-1.5,1.6-3.3,2.5-5.5,2.5c-2.2,0-4-0.8-5.5-2.5c-1.5-1.6-2.2-3.6-2.2-6c0-2.3,0.7-4.3,2.2-6c1.5-1.6,3.3-2.5,5.5-2.5
			c2.2,0,4,0.8,5.5,2.5c1.5,1.6,2.2,3.6,2.2,6C259.5,134.3,258.7,136.3,257.2,137.9z"/>
		<path class="st3" d="M288.5,139.1c-1.3,0.8-3,1.2-5.1,1.2s-3.8-0.7-5.2-2.2c-1.5-1.5-2.2-3.5-2.2-5.9c0-2.5,0.8-4.5,2.3-6
			c1.5-1.5,3.4-2.3,5.6-2.3c1.1,0,2.2,0.2,3.2,0.6c1,0.4,2.1,1.1,3.2,2.1l3-4.4c-2.8-2.5-6-3.7-9.8-3.7c-3.8,0-7,1.3-9.6,3.9
			c-2.7,2.6-4,5.8-4,9.7c0,3.9,1.3,7.1,3.9,9.6c2.6,2.5,5.8,3.8,9.7,3.8c4.6,0,8.2-1.4,10.8-4.3v-9.3h-5.9V139.1z"/>
		<polygon class="st3" points="319.1,135.9 306.3,119 300.8,119 300.8,145.2 306.6,145.2 306.6,128.8 319.1,145.2 324.9,145.2 
			324.9,119 319.1,119 		"/>
		<rect x="332.5" y="119" class="st3" width="5.8" height="26.2"/>
		<polygon class="st3" points="343.8,124.1 351.2,124.1 351.2,145.2 357.1,145.2 357.1,124.1 364.5,124.1 364.5,119 343.8,119 		"/>
		<rect x="369.9" y="119" class="st3" width="5.8" height="26.2"/>
		<polygon class="st3" points="393,135.7 386.3,119 380,119 390.5,145.2 395.5,145.2 406,119 399.7,119 		"/>
		<polygon class="st3" points="416.1,134.6 427.8,134.6 427.8,129.6 416.1,129.6 416.1,124.2 429.1,124.2 429.1,119 410.3,119 
			410.3,145.2 429.6,145.2 429.6,140 416.1,140 		"/>
		<path class="st3" d="M458,129.5c-2.5-0.6-4.1-1.1-4.8-1.6c-0.7-0.4-1-1.1-1-1.8c0-0.8,0.3-1.4,0.8-1.8c0.6-0.5,1.3-0.7,2.3-0.7
			c2.4,0,4.8,0.9,7,2.6l3-4.3c-1.3-1.1-2.8-1.9-4.6-2.5c-1.7-0.6-3.5-0.9-5.2-0.9c-2.7,0-4.9,0.7-6.7,2c-1.8,1.3-2.7,3.3-2.7,5.7
			c0,2.5,0.7,4.3,2.1,5.5c1.4,1.2,3.6,2.1,6.7,2.8c1.9,0.5,3.2,0.9,3.9,1.4s1,1.1,1,1.9c0,0.8-0.3,1.4-0.9,1.9
			c-0.6,0.5-1.5,0.7-2.5,0.7c-2.4,0-5-1.2-7.8-3.7l-3.5,4.3c3.3,3.1,7.1,4.6,11.2,4.6c2.9,0,5.2-0.7,6.9-2.2
			c1.8-1.5,2.6-3.4,2.6-5.7c0-2.3-0.7-4.1-2.1-5.4C462.4,131,460.5,130.1,458,129.5z"/>
		<path class="st3" d="M488.2,133.5c0,2.1-0.5,3.8-1.4,5c-1,1.2-2.3,1.8-3.9,1.8c-1.6,0-3-0.6-3.9-1.8c-1-1.2-1.5-2.9-1.5-5V119
			h-5.8v14.6c0,3.8,1.1,6.7,3.2,8.7c2.1,2,4.8,3.1,8.1,3.1c3.3,0,6-1,8.1-3.1c2.1-2,3.1-4.9,3.1-8.7V119h-5.8V133.5z"/>
		<rect x="501.3" y="119" class="st3" width="5.8" height="26.2"/>
		<polygon class="st3" points="512.6,124.1 520,124.1 520,145.2 525.8,145.2 525.8,124.1 533.2,124.1 533.2,119 512.6,119 		"/>
		<polygon class="st3" points="544.5,140 544.5,134.6 556.2,134.6 556.2,129.6 544.5,129.6 544.5,124.2 557.5,124.2 557.5,119 
			538.7,119 538.7,145.2 558,145.2 558,140 		"/>
		<path class="st3" d="M43.8,94.4c23.6-39.9,65.7-19.7,65.7-19.7S74.2,48.8,43,70.7c-31.2,21.9-29.5,72.2,13,100.2
			C56,170.9,20.2,134.3,43.8,94.4z"/>
		<path class="st3" d="M77.2,124.5c-13.8-31.7,11.4-48,11.4-48S55.3,85.8,63.2,132c7.8,46.1,71.4,39.4,93.4,18.6
			C128.1,166,91,156.2,77.2,124.5z"/>
		<path class="st3" d="M148,123.1c-20.3,7.3-51,8.7-66.7-14.5c3.7,14.4,23.4,35.3,58.4,28.9c35-6.3,39-43.5,39-43.5
			S168.3,115.8,148,123.1z"/>
	</g>
</g>
</svg>
